<svg width="226px" height="422px"
 viewBox="0.00 0.00 226.12 422.00" xmlns="http://www.w3.org/2000/svg" xmlns:xlink="http://www.w3.org/1999/xlink">
<g id="graph0" class="graph" transform="scale(1.0 1.0) rotate(0) translate(4 418)">
<title>de.uniks.abacus.model</title>
<polygon fill="white" stroke="transparent" points="-4,4 -4,-418 222.12,-418 222.12,4 -4,4"/>
<!-- Game -->
<g id="node1" class="node">
<title>Game</title>
<polygon fill="none" stroke="black" points="8.62,-43.5 8.62,-65.5 47.62,-65.5 47.62,-43.5 8.62,-43.5"/>
<text text-anchor="start" x="11.4" y="-49.9" font-family="Times,serif" font-size="14.00">Game</text>
<polygon fill="none" stroke="black" points="8.62,-37.5 8.62,-43.5 47.62,-43.5 47.62,-37.5 8.62,-37.5"/>
</g>
<!-- Player -->
<g id="node3" class="node">
<title>Player</title>
<polygon fill="none" stroke="black" points="20.62,-215.5 20.62,-237.5 109.62,-237.5 109.62,-215.5 20.62,-215.5"/>
<text text-anchor="start" x="47.24" y="-221.9" font-family="Times,serif" font-size="14.00">Player</text>
<polygon fill="none" stroke="black" points="20.62,-142.5 20.62,-215.5 109.62,-215.5 109.62,-142.5 20.62,-142.5"/>
<text text-anchor="start" x="23.62" y="-199.9" font-family="Times,serif" font-size="14.00">rightSum :int</text>
<text text-anchor="start" x="23.62" y="-183.1" font-family="Times,serif" font-size="14.00">wrongSum :int</text>
<text text-anchor="start" x="23.62" y="-166.3" font-family="Times,serif" font-size="14.00">name :String</text>
<text text-anchor="start" x="23.62" y="-149.5" font-family="Times,serif" font-size="14.00">id :int</text>
</g>
<!-- Game&#45;&gt;Player -->
<g id="edge1" class="edge">
<title>Game&#45;&gt;Player</title>
<path fill="none" stroke="black" d="M32.23,-69.57C36.9,-86.86 44.35,-114.44 50.93,-138.8"/>
<text text-anchor="middle" x="25.46" y="-126.2" font-family="Times,serif" font-size="14.00">players *</text>
<text text-anchor="middle" x="26.98" y="-73.77" font-family="Times,serif" font-size="14.00"> *</text>
</g>
<!-- History -->
<g id="node2" class="node">
<title>History</title>
<polygon fill="none" stroke="black" points="81.62,-76.5 81.62,-98.5 210.62,-98.5 210.62,-76.5 81.62,-76.5"/>
<text text-anchor="start" x="125.12" y="-82.9" font-family="Times,serif" font-size="14.00">History</text>
<polygon fill="none" stroke="black" points="81.62,-3.5 81.62,-76.5 210.62,-76.5 210.62,-3.5 81.62,-3.5"/>
<text text-anchor="start" x="84.62" y="-60.9" font-family="Times,serif" font-size="14.00">rightResultTotal :int</text>
<text text-anchor="start" x="84.62" y="-44.1" font-family="Times,serif" font-size="14.00">wrongResultTotal :int</text>
<text text-anchor="start" x="84.62" y="-27.3" font-family="Times,serif" font-size="14.00">time :String</text>
<text text-anchor="start" x="84.62" y="-10.5" font-family="Times,serif" font-size="14.00">finish :String</text>
</g>
<!-- History&#45;&gt;Player -->
<g id="edge2" class="edge">
<title>History&#45;&gt;Player</title>
<path fill="none" stroke="black" d="M115.69,-103.12C108.84,-114.71 101.55,-127.03 94.7,-138.63"/>
<text text-anchor="middle" x="77.21" y="-126.03" font-family="Times,serif" font-size="14.00">player</text>
<text text-anchor="middle" x="86.72" y="-107.32" font-family="Times,serif" font-size="14.00">histories *</text>
</g>
<!-- Result -->
<g id="node4" class="node">
<title>Result</title>
<polygon fill="none" stroke="black" points="48.62,-388 48.62,-410 160.62,-410 160.62,-388 48.62,-388"/>
<text text-anchor="start" x="86.73" y="-394.4" font-family="Times,serif" font-size="14.00">Result</text>
<polygon fill="none" stroke="black" points="48.62,-282 48.62,-388 160.62,-388 160.62,-282 48.62,-282"/>
<text text-anchor="start" x="51.62" y="-372.4" font-family="Times,serif" font-size="14.00">resultStatus :String</text>
<text text-anchor="start" x="51.62" y="-355.6" font-family="Times,serif" font-size="14.00">operation :char</text>
<text text-anchor="start" x="51.62" y="-338.8" font-family="Times,serif" font-size="14.00">firstVal :int</text>
<text text-anchor="start" x="51.62" y="-322" font-family="Times,serif" font-size="14.00">secondVal :int</text>
<text text-anchor="start" x="51.62" y="-305.2" font-family="Times,serif" font-size="14.00">resultVal :int</text>
<text text-anchor="start" x="51.62" y="-288.4" font-family="Times,serif" font-size="14.00">rightVal :int</text>
</g>
<!-- History&#45;&gt;Result -->
<g id="edge3" class="edge">
<title>History&#45;&gt;Result</title>
<path fill="none" stroke="black" d="M142.05,-103.37C139,-141.63 133.93,-195.29 126.62,-242 124.79,-253.65 122.49,-265.97 120.07,-277.88"/>
<text text-anchor="middle" x="96.55" y="-265.28" font-family="Times,serif" font-size="14.00">results *</text>
<text text-anchor="middle" x="161.49" y="-107.57" font-family="Times,serif" font-size="14.00">history</text>
</g>
<!-- Player&#45;&gt;Result -->
<g id="edge4" class="edge">
<title>Player&#45;&gt;Result</title>
<path fill="none" stroke="black" d="M77.83,-242.19C80.81,-253.63 84.02,-265.94 87.14,-277.94"/>
<text text-anchor="middle" x="63.62" y="-265.34" font-family="Times,serif" font-size="14.00">results *</text>
<text text-anchor="middle" x="60.34" y="-246.39" font-family="Times,serif" font-size="14.00">player</text>
</g>
</g>
</svg>
