<svg width="222px" height="382px"
     viewBox="0.00 0.00 222.12 382.25" xmlns="http://www.w3.org/2000/svg">
<g id="graph0" class="graph" transform="scale(1.0 1.0) rotate(0) translate(4 378.25)">
<title>de.uniks.abacus.model</title>
<polygon fill="white" stroke="none" points="-4,4 -4,-378.25 218.12,-378.25 218.12,4 -4,4"/>
<!-- Game -->
<g id="node1" class="node">
<title>Game</title>
<polygon fill="none" stroke="black" points="8,-38.5 8,-58.75 47,-58.75 47,-38.5 8,-38.5"/>
<text text-anchor="start" x="11" y="-42.45" font-family="Times,serif" font-size="14.00">Game</text>
<polygon fill="none" stroke="black" points="8,-32.5 8,-38.5 47,-38.5 47,-32.5 8,-32.5"/>
</g>
<!-- Player -->
<g id="node3" class="node">
<title>Player</title>
<polygon fill="none" stroke="black" points="19.62,-194.25 19.62,-214.5 107.38,-214.5 107.38,-194.25 19.62,-194.25"/>
<text text-anchor="start" x="46.25" y="-198.2" font-family="Times,serif" font-size="14.00">Player</text>
<polygon fill="none" stroke="black" points="19.62,-131.25 19.62,-194.25 107.38,-194.25 107.38,-131.25 19.62,-131.25"/>
<text text-anchor="start" x="22.62" y="-177.95" font-family="Times,serif" font-size="14.00">rightSum :int</text>
<text text-anchor="start" x="22.62" y="-163.7" font-family="Times,serif" font-size="14.00">wrongSum :int</text>
<text text-anchor="start" x="22.62" y="-149.45" font-family="Times,serif" font-size="14.00">name :String</text>
<text text-anchor="start" x="22.62" y="-135.2" font-family="Times,serif" font-size="14.00">id :String</text>
</g>
<!-- Game&#45;&gt;Player -->
<g id="edge1" class="edge">
<title>Game&#45;&gt;Player</title>
<path fill="none" stroke="black" d="M32.36,-63.52C37.04,-79.81 44.33,-105.18 50.68,-127.28"/>
<text text-anchor="middle" x="25.93" y="-113.98" font-family="Times,serif" font-size="14.00">players *</text>
<text text-anchor="middle" x="17.36" y="-64.47" font-family="Times,serif" font-size="14.00">game</text>
</g>
<!-- History -->
<g id="node2" class="node">
<title>History</title>
<polygon fill="none" stroke="black" points="80.88,-67 80.88,-87.25 206.12,-87.25 206.12,-67 80.88,-67"/>
<text text-anchor="start" x="123.25" y="-70.95" font-family="Times,serif" font-size="14.00">History</text>
<polygon fill="none" stroke="black" points="80.88,-4 80.88,-67 206.12,-67 206.12,-4 80.88,-4"/>
<text text-anchor="start" x="83.88" y="-50.7" font-family="Times,serif" font-size="14.00">rightResultTotal :int</text>
<text text-anchor="start" x="83.88" y="-36.45" font-family="Times,serif" font-size="14.00">wrongResultTotal :int</text>
<text text-anchor="start" x="83.88" y="-22.2" font-family="Times,serif" font-size="14.00">time :String</text>
<text text-anchor="start" x="83.88" y="-7.95" font-family="Times,serif" font-size="14.00">finish :String</text>
</g>
<!-- History&#45;&gt;Player -->
<g id="edge2" class="edge">
<title>History&#45;&gt;Player</title>
<path fill="none" stroke="black" d="M115.07,-91.14C107.52,-102.95 99.38,-115.7 91.84,-127.51"/>
<text text-anchor="middle" x="108.71" y="-114.21" font-family="Times,serif" font-size="14.00">player</text>
<text text-anchor="middle" x="86.94" y="-92.09" font-family="Times,serif" font-size="14.00">histories *</text>
</g>
<!-- Result -->
<g id="node4" class="node">
<title>Result</title>
<polygon fill="none" stroke="black" points="48.75,-350 48.75,-370.25 158.25,-370.25 158.25,-350 48.75,-350"/>
<text text-anchor="start" x="86.25" y="-353.95" font-family="Times,serif" font-size="14.00">Result</text>
<polygon fill="none" stroke="black" points="48.75,-258.5 48.75,-350 158.25,-350 158.25,-258.5 48.75,-258.5"/>
<text text-anchor="start" x="51.75" y="-333.7" font-family="Times,serif" font-size="14.00">resultStatus :String</text>
<text text-anchor="start" x="51.75" y="-319.45" font-family="Times,serif" font-size="14.00">operation :String</text>
<text text-anchor="start" x="51.75" y="-305.2" font-family="Times,serif" font-size="14.00">firstVal :int</text>
<text text-anchor="start" x="51.75" y="-290.95" font-family="Times,serif" font-size="14.00">secondVal :int</text>
<text text-anchor="start" x="51.75" y="-276.7" font-family="Times,serif" font-size="14.00">resultVal :int</text>
<text text-anchor="start" x="51.75" y="-262.45" font-family="Times,serif" font-size="14.00">rightVal :int</text>
</g>
<!-- History&#45;&gt;Result -->
<g id="edge3" class="edge">
<title>History&#45;&gt;Result</title>
<path fill="none" stroke="black" d="M139.92,-90.96C136.79,-125.78 131.63,-175.41 124.5,-218.5 122.56,-230.23 120.09,-242.7 117.54,-254.61"/>
<text text-anchor="middle" x="140.42" y="-241.31" font-family="Times,serif" font-size="14.00">results *</text>
<text text-anchor="middle" x="158.67" y="-91.91" font-family="Times,serif" font-size="14.00">history</text>
</g>
<!-- Player&#45;&gt;Result -->
<g id="edge4" class="edge">
<title>Player&#45;&gt;Result</title>
<path fill="none" stroke="black" d="M76.27,-218.4C79.56,-229.88 83.15,-242.42 86.62,-254.51"/>
<text text-anchor="middle" x="63.74" y="-241.21" font-family="Times,serif" font-size="14.00">results *</text>
<text text-anchor="middle" x="59.39" y="-219.35" font-family="Times,serif" font-size="14.00">player</text>
</g>
</g>
</svg>
