<svg width="260px" height="283px"
 viewBox="0.00 0.00 259.50 283.00" xmlns="http://www.w3.org/2000/svg" xmlns:xlink="http://www.w3.org/1999/xlink">
<g id="graph0" class="graph" transform="scale(1.0 1.0) rotate(0) translate(4 279)">
<title>de.uniks.abacus.model</title>
<polygon fill="white" stroke="transparent" points="-4,4 -4,-279 255.5,-279 255.5,4 -4,4"/>
<!-- History -->
<g id="node1" class="node">
<title>History</title>
<polygon fill="none" stroke="black" points="55.5,-76.5 55.5,-98.5 184.5,-98.5 184.5,-76.5 55.5,-76.5"/>
<text text-anchor="start" x="99" y="-82.9" font-family="Times,serif" font-size="14.00">History</text>
<polygon fill="none" stroke="black" points="55.5,-3.5 55.5,-76.5 184.5,-76.5 184.5,-3.5 55.5,-3.5"/>
<text text-anchor="start" x="58.5" y="-60.9" font-family="Times,serif" font-size="14.00">rightResultTotal :int</text>
<text text-anchor="start" x="58.5" y="-44.1" font-family="Times,serif" font-size="14.00">wrongResultTotal :int</text>
<text text-anchor="start" x="58.5" y="-27.3" font-family="Times,serif" font-size="14.00">time :String</text>
<text text-anchor="start" x="58.5" y="-10.5" font-family="Times,serif" font-size="14.00">finish :String</text>
</g>
<!-- Player -->
<g id="node2" class="node">
<title>Player</title>
<polygon fill="none" stroke="black" points="8.5,-215 8.5,-237 97.5,-237 97.5,-215 8.5,-215"/>
<text text-anchor="start" x="35.12" y="-221.4" font-family="Times,serif" font-size="14.00">Player</text>
<polygon fill="none" stroke="black" points="8.5,-176 8.5,-215 97.5,-215 97.5,-176 8.5,-176"/>
<text text-anchor="start" x="11.5" y="-199.4" font-family="Times,serif" font-size="14.00">rightSum :int</text>
<text text-anchor="start" x="11.5" y="-182.6" font-family="Times,serif" font-size="14.00">wrongSum :int</text>
</g>
<!-- History&#45;&gt;Player -->
<g id="edge1" class="edge">
<title>History&#45;&gt;Player</title>
<path fill="none" stroke="black" d="M97.38,-103.19C87.47,-125.89 76.05,-152.05 67.21,-172.3"/>
<text text-anchor="middle" x="49.72" y="-159.7" font-family="Times,serif" font-size="14.00">player</text>
<text text-anchor="middle" x="68.41" y="-107.39" font-family="Times,serif" font-size="14.00">histories *</text>
</g>
<!-- Result -->
<g id="node3" class="node">
<title>Result</title>
<polygon fill="none" stroke="black" points="131.5,-249 131.5,-271 243.5,-271 243.5,-249 131.5,-249"/>
<text text-anchor="start" x="169.61" y="-255.4" font-family="Times,serif" font-size="14.00">Result</text>
<polygon fill="none" stroke="black" points="131.5,-143 131.5,-249 243.5,-249 243.5,-143 131.5,-143"/>
<text text-anchor="start" x="134.5" y="-233.4" font-family="Times,serif" font-size="14.00">resultStatus :String</text>
<text text-anchor="start" x="134.5" y="-216.6" font-family="Times,serif" font-size="14.00">operation :char</text>
<text text-anchor="start" x="134.5" y="-199.8" font-family="Times,serif" font-size="14.00">firstVal :int</text>
<text text-anchor="start" x="134.5" y="-183" font-family="Times,serif" font-size="14.00">secondVal :int</text>
<text text-anchor="start" x="134.5" y="-166.2" font-family="Times,serif" font-size="14.00">resultVal :int</text>
<text text-anchor="start" x="134.5" y="-149.4" font-family="Times,serif" font-size="14.00">rightVal :int</text>
</g>
<!-- History&#45;&gt;Result -->
<g id="edge2" class="edge">
<title>History&#45;&gt;Result</title>
<path fill="none" stroke="black" d="M141.95,-103.19C147.02,-114.63 152.48,-126.94 157.79,-138.94"/>
<text text-anchor="middle" x="134.27" y="-126.34" font-family="Times,serif" font-size="14.00">results *</text>
<text text-anchor="middle" x="122.51" y="-107.39" font-family="Times,serif" font-size="14.00">history</text>
</g>
</g>
</svg>
